<?xml version="1.0" encoding="UTF-8"?>
<!DOCTYPE svg PUBLIC "-//W3C//DTD SVG 1.1//EN" "http://www.w3.org/Graphics/SVG/1.1/DTD/svg11.dtd">
<!-- Creator: CorelDRAW 2017 -->
<svg xmlns="http://www.w3.org/2000/svg" xml:space="preserve" width="2.66666in" height="2.66666in" version="1.1" style="shape-rendering:geometricPrecision; text-rendering:geometricPrecision; image-rendering:optimizeQuality; fill-rule:evenodd; clip-rule:evenodd"
viewBox="0 0 2666.66 2666.66"
 xmlns:xlink="http://www.w3.org/1999/xlink">
 <defs>
  <style type="text/css">
   <![CDATA[
    .fil1 {fill:#28B473}
    .fil7 {fill:#2C2F33}
    .fil8 {fill:#3C92CA}
    .fil4 {fill:#999999}
    .fil2 {fill:#999999}
    .fil6 {fill:#ABABAB}
    .fil5 {fill:#CCCCCC}
    .fil3 {fill:#CCCCCC}
    .fil0 {fill:white}
   ]]>
  </style>
   <clipPath id="id0">
    <rect x="1500.81" y="482.61" width="557.58" height="557.58"/>
   </clipPath>
 </defs>
 <g id="Layer_x0020_1">
  <metadata id="CorelCorpID_0Corel-Layer"/>
  <rect class="fil0" x="-360" y="-360" width="3386.66" height="3386.66"/>
  <rect class="fil1" x="-0" y="-0" width="2666.67" height="2666.67" rx="1333.33" ry="1333.33"/>
  <path class="fil0" d="M784.16 464.67l842.6 0 443 443 0.35 -0.35 0 1124.61c0,110.51 -90.42,200.93 -200.93,200.93l-1085.02 0c-110.52,0 -200.93,-90.42 -200.93,-200.93l0 -1366.33c0,-110.52 90.42,-200.93 200.93,-200.93z"/>
  <g style="clip-path:url(#id0)">
   <image x="1500.81" y="482.61" width="557.59" height="557.59" xlink:href="logo7.1.3_Images\logo7.1.3_ImgID1.png"/>
  </g>
  <polygon class="fil0" points="1616.69,490.51 1621.71,902.41 2038.65,917.48 "/>
  <rect class="fil2" x="847.43" y="1243.27" width="688.19" height="70.32" rx="33.34" ry="26.04"/>
  <rect class="fil3" x="847.43" y="1077.51" width="391.81" height="65.3" rx="33.53" ry="29.23"/>
  <rect class="fil4" x="847.43" y="1620.02" width="688.19" height="70.32" rx="33.34" ry="26.04"/>
  <rect class="fil5" x="847.43" y="1454.26" width="391.81" height="65.3" rx="33.53" ry="29.23"/>
  <rect class="fil6" x="1105.64" y="1941.51" width="442.04" height="145.68" rx="45.89" ry="45.89"/>
  <g id="_2653261172096">
   <g>
    <g>
     <path class="fil7" d="M703.85 582.27c55.17,-56.44 145.92,-57.52 202.36,-2.35l-16.08 0.19c-3.49,0.06 -6.23,2.86 -6.23,6.36 0.07,3.43 2.86,6.23 6.3,6.23l0.06 0 31.27 -0.38c3.5,-0.06 6.23,-2.86 6.23,-6.35l-0.38 -31.27c-0.06,-3.5 -2.86,-6.29 -6.35,-6.23 -3.5,0.06 -6.23,2.86 -6.23,6.36l0.19 16.08c-61.39,-60 -160.16,-58.79 -220.15,2.61 -20.78,21.29 -35.02,47.85 -41.06,76.9 -5.91,28.28 -3.88,57.52 5.85,84.66 0.96,2.54 3.37,4.19 5.91,4.19 0.7,0 1.4,-0.13 2.09,-0.38 3.24,-1.14 4.96,-4.76 3.81,-8.07 -18.62,-52.05 -6.23,-109 32.41,-148.53z"/>
     <path class="fil7" d="M697.43 793.78c29.3,28.6 67.88,44.3 108.74,44.3 0.63,0 1.21,0 1.84,0 41.63,-0.51 80.52,-17.09 109.57,-46.9 20.85,-21.29 35.02,-47.92 41.06,-76.96 5.91,-28.28 3.87,-57.52 -5.85,-84.66 -1.14,-3.24 -4.76,-4.96 -8.07,-3.81 -3.24,1.14 -4.96,4.77 -3.81,8.07 18.69,52.05 6.29,109 -32.35,148.53 -26.76,27.33 -62.48,42.65 -100.73,43.09 -38.2,0.44 -74.3,-14.05 -101.63,-40.74l16.08 -0.19c3.5,-0.07 6.23,-2.86 6.23,-6.36 -0.06,-3.43 -2.86,-6.23 -6.29,-6.23l-0.06 0 -31.27 0.38c-1.65,0 -3.24,0.7 -4.45,1.91 -1.15,1.2 -1.78,2.8 -1.78,4.44l0.38 31.27c0.06,3.43 2.86,6.23 6.29,6.23l0.06 0c3.5,-0.06 6.23,-2.86 6.23,-6.35l-0.19 -16.02z"/>
     <path class="fil8" d="M893.24 646.21c-13.92,-33.49 -45.44,-55.74 -81.29,-57.9 -0.64,-0.06 -1.33,-0.06 -2.04,-0.13 -0.06,0 -0.19,0 -0.25,0 -0.38,0 -0.76,-0.07 -1.15,-0.07 -0.06,0 -0.13,0 -0.19,0 -0.7,0 -1.4,-0.06 -2.16,-0.06 -12.39,0 -24.47,2.42 -35.97,7.18 -23.26,9.6 -41.37,27.71 -50.97,50.97 -9.66,23.26 -9.66,48.87 0,72.07 14.62,35.33 48.81,58.22 87.07,58.22 0.51,0 0.95,0 1.46,-0.06 0.26,0 0.57,0.06 0.83,0.06 0.13,0 0.26,0 0.32,-0.06 0.57,0 1.08,-0.07 1.65,-0.07 0.19,0 0.38,0 0.63,0 0.19,0 0.32,0 0.51,-0.06 10.49,-0.57 20.78,-2.92 30.63,-6.99 23.26,-9.6 41.37,-27.71 50.97,-50.97 9.59,-23.26 9.66,-48.87 0,-72.07 -0.06,0 -0.06,0 -0.06,-0.06 0,0.06 0,0.06 0,0zm-119.87 -38.58c-6.99,9.09 -12.58,20.97 -16.27,34.76l-22.05 0c8.58,-15.38 21.93,-27.52 38.32,-34.76zm-44.04 47.41l25.04 0c-1.46,8.58 -2.22,17.73 -2.22,27.33 0,9.47 0.83,18.69 2.42,27.33l-25.23 0c-6.35,-17.8 -6.35,-36.93 0,-54.66zm5.72 67.18l22.43 0c3.94,14.04 9.92,26.19 17.22,35.46 -16.65,-6.99 -30.7,-19.32 -39.66,-35.46zm67.18 40.8c-13.16,-3.87 -24.85,-19.64 -31.52,-40.8l31.52 0 0 40.8 0 0zm0 -53.39l-34.76 0c-1.78,-8.64 -2.73,-17.86 -2.73,-27.33 0,-9.6 0.89,-18.81 2.41,-27.33l35.08 0 0 54.65zm0 -67.18l-32.09 0c6.42,-21.86 18.11,-37.3 32.09,-40.86l0 40.86zm75.19 -0.06l-17.48 0c-3.24,-12.14 -7.88,-22.75 -13.73,-31.27 12.9,7.24 23.77,17.98 31.2,31.27zm-62.6 -40.87c13.98,3.63 25.61,19.07 32.09,40.87l-32.09 0 0 -40.87zm0 53.52l35.08 0c1.59,8.52 2.41,17.67 2.41,27.33 0,9.47 -0.95,18.69 -2.73,27.33l-34.76 0 0 -54.66zm0 107.98l0 -40.8 31.52 0c-6.67,21.16 -18.37,36.93 -31.52,40.8zm30.13 -8.83c6.17,-8.71 11.19,-19.64 14.68,-31.97l17.8 0c-7.56,13.6 -18.75,24.59 -32.48,31.97zm38.2 -44.56l-20.66 0c1.59,-8.64 2.42,-17.8 2.42,-27.33 0,-9.6 -0.76,-18.75 -2.22,-27.33l20.46 0c6.35,17.8 6.35,36.93 0,54.65z"/>
    </g>
   </g>
   <g>
   </g>
   <g>
   </g>
   <g>
   </g>
   <g>
   </g>
   <g>
   </g>
   <g>
   </g>
   <g>
   </g>
   <g>
   </g>
   <g>
   </g>
   <g>
   </g>
   <g>
   </g>
   <g>
   </g>
   <g>
   </g>
   <g>
   </g>
   <g>
   </g>
  </g>
 </g>
</svg>
